<?xml version="1.0" standalone="yes"?><svg xmlns="http://www.w3.org/2000/svg" xmlns:xlink="http://www.w3.org/1999/xlink" version="1.1" x="0px" y="0px" enable-background="new 0 0 100 100" xml:space="preserve" style="zoom: 1;" viewBox="5 20.42 90 58.97"><path d="M92.029,41.766 c-0.037,0 -0.074,0.014 -0.1,0.026 c-2.599,1.786 -5.384,3.11 -8.568,3.385 c-0.35,0.024 -0.688,0.038 -1.037,0.038 c-1.573,0 -3.086,-0.312 -4.534,-1.038 c-0.235,-0.125 -0.488,-0.263 -0.324,-0.574 c0.089,-0.176 0.2,-0.238 0.349,-0.238 c0.102,0 0.213,0.026 0.352,0.076 c0.861,0.299 1.725,0.574 2.611,0.786 c0.498,0.112 1.021,0.112 1.586,0.15 c0.012,0 0.012,0 0.012,0 c0.126,0 0.2,-0.112 0.175,-0.225 c-0.013,-0.038 -0.024,-0.062 -0.036,-0.088 c-0.588,-1.648 -1.188,-3.285 -1.775,-4.934 c-0.635,-1.748 -1.211,-3.51 -1.922,-5.221 c-1.312,-3.172 -3.573,-5.421 -6.721,-6.795 c-1.587,-0.687 -3.397,-0.986 -5.121,-1.062 h-0.102 c-0.088,0 -0.174,0 -0.249,0.05 c-0.013,0 -0.024,0 -0.024,0 c-0.3,0 -2.248,-1.35 -2.886,-1.938 c-0.787,-0.75 -1.662,-1.399 -2.61,-1.91 c-0.312,-0.175 -0.65,-0.337 -0.976,-0.487 c-0.674,-0.288 -1.323,-0.462 -1.961,-0.462 c-0.799,0 -1.562,0.274 -2.272,0.887 c-0.838,0.736 -1.688,1.499 -2.36,2.373 c-2.187,2.836 -3.46,6.071 -3.859,9.644 c-0.288,2.56 0.149,4.983 1.449,7.231 c1.212,2.074 2.724,3.91 4.495,5.535 c2.148,1.948 4.523,3.56 7.134,4.834 c0.024,0.012 0.062,0.022 0.101,0.022 c0.138,0 0.312,-0.074 0.412,-0.162 c1.924,-1.711 3.834,-3.435 5.746,-5.17 c0.037,-0.05 0.348,-0.4 0.812,-0.75 c0.463,-0.351 1.088,-0.688 1.737,-0.688 c0.349,0 0.697,0.088 1.049,0.325 c0.113,0.062 0.226,0.175 0.338,0.287 c2.223,2.324 4.945,3.573 8.156,3.647 c0.111,0.013 0.225,0.013 0.336,0.013 c2.41,0 4.672,-0.675 6.783,-1.861 c1.711,-0.95 3.061,-2.287 3.686,-4.197 c0.15,-0.413 0.213,-0.862 0.299,-1.3 C92.217,41.854 92.13,41.766 92.029,41.766 M72.23,36.246 h-0.013 c-0.524,-0.013 -1.05,-0.537 -1.062,-1.05 c-0.014,-0.525 0.5,-1.062 1.023,-1.074 h0.037 c0.574,0 1.051,0.463 1.062,1.037 C73.281,35.733 72.793,36.246 72.23,36.246 M94.729,46.014 c-0.412,-1.761 -0.648,-2.961 -1.623,-4.198 c0.013,0.113 0.037,0.226 0.013,0.325 l-0.039,0.238 c-0.074,0.387 -0.147,0.788 -0.272,1.199 c-0.389,1.15 -1.051,2.148 -1.912,3.022 c0.388,2.661 -1.25,5.72 -4.521,4.673 c-0.774,-0.252 -1.437,-0.738 -1.974,-1.352 c-0.976,0.212 -1.963,0.351 -2.961,0.351 c-0.125,0 -0.25,0 -0.362,-0.013 c-2.224,-0.05 -4.247,-0.637 -6.07,-1.737 c0.938,1.424 1.823,2.711 2.261,3.31 c1.287,1.726 2.836,3.086 4.935,3.786 c2.71,0.911 5.209,0.773 7.795,0.174 C94.253,54.82 95.65,49.948 94.729,46.014 M92.204,40.842 c-1.687,-1.523 -5.195,-3.21 -5.933,-5.496 c-0.226,-0.688 0.225,-1.137 0.924,-1 c0.875,0.188 1.337,0.138 0.787,-0.774 c-0.574,-0.95 -1.225,-1.986 -2,-2.861 c-0.36,-0.411 -1.047,-0.249 -1.172,0.289 c-0.138,0.537 -0.213,1.112 -0.486,1.574 c-0.438,0.762 -1.037,1.461 -0.975,2.423 c0.125,1.836 2.586,3.71 3.771,5.072 c0.674,0.774 1.312,1.573 1.898,2.398 c0.774,-0.4 1.562,-0.887 2.373,-1.437 c0.188,-0.138 0.412,-0.2 0.637,-0.2 c0.074,0 0.139,0.038 0.201,0.05 C92.217,40.868 92.217,40.854 92.204,40.842 M69.479,47.081 c-1.924,1.724 -3.834,3.459 -5.758,5.183 c-0.275,0.238 -0.675,0.389 -1.037,0.389 c-0.188,0 -0.351,-0.037 -0.512,-0.112 c-2.674,-1.312 -5.146,-2.985 -7.347,-4.997 c-1.872,-1.698 -3.447,-3.634 -4.684,-5.758 c-1.361,-2.335 -1.886,-4.96 -1.573,-7.794 c0.262,-2.286 0.874,-4.447 1.811,-6.445 c-3.198,-0.164 -6.333,-0.164 -8.806,-0.013 c-6.57,0.4 -12.166,2.786 -16.826,7.533 c-3.685,3.76 -4.285,5.72 -5.759,10.742 c-0.824,2.798 -1.336,5.646 -1.586,8.543 c-0.138,1.6 0.1,3.373 -0.625,4.834 c-0.6,1.213 -1.674,2.086 -2.761,2.836 c-0.375,0.263 -0.762,0.513 -1.136,0.762 c-0.1,0.076 -0.212,0.15 -0.338,0.162 c-0.325,0.062 -0.711,-0.262 -0.987,-0.411 c-0.337,-0.188 -0.687,-0.362 -1.024,-0.537 c-0.7,-0.351 -1.399,-0.687 -2.111,-0.999 C7.299,60.509 6.162,60.07 5,59.697 c0.15,0.035 0.6,1.623 0.712,1.861 c0.325,0.623 0.7,1.211 1.15,1.76 c0.886,1.125 1.848,1.998 3.297,2.211 c0.887,0.138 1.812,-0.162 2.411,-0.836 c0.2,-0.238 0.525,-0.338 0.824,-0.4 c0.35,-0.062 0.675,-0.148 1.012,-0.273 c0.325,-0.125 0.65,-0.287 0.95,-0.477 c0.624,-0.361 1.187,-0.812 1.711,-1.286 c0.037,-0.037 0.075,-0.087 0.125,-0.125 c0.312,-0.299 1.661,-1.387 1.661,-1.886 c-0.025,4.834 0.9,13.504 1.287,16.963 c0.088,0.85 0.812,1.486 1.662,1.486 h6.995 c0.887,0 1.624,-0.688 1.673,-1.573 c0.188,-3.785 0.226,-7.646 1.062,-11.354 c0.4,-1.724 1.012,-3.447 2.074,-4.896 c0.462,-0.625 1.049,-1.162 1.537,-1.787 c0.487,-0.587 0.937,-1.224 1.336,-1.886 c0.663,-1.137 1.312,-2.623 0.8,-3.946 c-0.087,-0.237 0.025,-0.513 0.274,-0.601 c0.237,-0.1 0.512,0.024 0.6,0.263 c0.961,2.498 -1.287,5.633 -2.686,7.258 c-0.225,0.261 -0.075,0.661 0.262,0.699 c4.947,0.688 14.115,0.897 19.085,-0.45 c-0.023,-0.037 -0.037,-0.074 -0.037,-0.111 s-0.411,-3.397 -0.674,-4.908 c-0.039,-0.25 0.138,-0.502 0.387,-0.537 c0.263,-0.051 0.501,0.124 0.537,0.375 c0.25,1.461 0.625,4.482 0.676,4.908 h0.012 v0.05 c0.737,5.87 0.398,13.466 0.639,16.926 c0.049,0.887 0.787,1.574 1.672,1.574 h7.408 c0.961,0 1.724,-0.8 1.674,-1.763 C66.182,59.848 69.641,57.073 69.479,47.081"></path><line stroke="#fc0107" visibility="visible" y1="21.167559px" id="line1" x1="19.919786px" stroke-width="1px" y2="78.65419px" x2="19.919786px" transform=""></line><line stroke="#fc0107" visibility="visible" y1="21.167559px" stroke-width="1px" x1="22.816399px" id="line2" y2="78.65419px" x2="22.816399px" transform=""></line><line stroke="#fc0107" visibility="visible" y1="21.167559px" stroke-width="1px" x1="25.935829px" id="line3" y2="78.65419px" x2="25.935829px" transform=""></line><line stroke="#fc0107" visibility="visible" y1="21.167559px" stroke-width="1px" x1="29.278074px" id="line4" y2="78.65419px" x2="29.278074px" transform=""></line><line stroke="#fc0107" y1="21.189976px" stroke-width="1px" x1="32.620319px" id="line5" y2="78.676605px" x2="32.620319px" transform="" visibility="visible"></line><line stroke="#fc0107" visibility="visible" y1="21.167559px" stroke-width="1px" x1="35.962566px" id="line6" y2="78.65419px" x2="35.962566px" transform=""></line><line stroke="#fc0107" y1="21.189974px" stroke-width="1px" x1="39.52763px" id="line7" y2="78.676605px" x2="39.52763px" transform="" visibility="visible"></line><line stroke="#fc0107" y1="21.267763px" stroke-width="1px" x1="43.092693px" id="line8" y2="78.754395px" x2="43.092693px" transform="" visibility="visible"></line><line stroke="#fc0107" y1="21.267756px" stroke-width="1px" x1="46.657753px" id="line9" y2="78.754387px" x2="46.657753px" transform="" visibility="visible"></line><line stroke="#fc0107" y1="21.267763px" stroke-width="1px" x1="50.222816px" id="line10" y2="78.754395px" x2="50.222816px" transform="" visibility="visible"></line></svg>